<svg width="50" height="50" viewBox="0 0 50 50" fill="none" xmlns="http://www.w3.org/2000/svg">
  <path d="M29.213 14.4266C28.3199 13.8684 26.7012 14.008 26.0035 14.1475C26.7849 13.5335 26.7012 13.101 26.5617 12.9614C26.5617 12.9614 25.3756 11.8451 24.957 12.0544C24.5383 12.2637 23.7011 13.1847 23.7011 15.1941C23.7011 17.2035 24.1662 18.171 24.3988 18.4035L29.3525 23.2177C30.2595 23.1247 32.0177 23.3572 31.7945 25.0317C31.5712 26.7062 30.027 26.7993 29.2827 26.6365C28.9106 26.9388 27.7338 27.99 26.0035 29.7761C24.2732 31.5623 23.8406 32.567 23.8406 32.846C23.729 35.5252 24.1197 36.9392 24.329 37.3114C24.4221 37.6137 24.8732 38.0649 25.9338 37.4509C26.9943 36.8369 26.3756 36.0322 25.9338 35.7066C27.4408 36.0973 28.7943 35.6834 29.2827 35.4275C28.4455 36.7532 26.3663 39.3068 24.7476 38.9161C22.7243 38.4277 22.6545 35.0787 22.7243 33.474C22.7801 32.1902 23.5848 30.8925 23.9802 30.4041L28.6548 25.869C28.5618 25.869 28.3618 25.6876 28.3059 24.962C28.2501 24.2364 28.4687 23.9619 28.585 23.9154C27.6082 22.9851 25.3616 20.8316 24.1895 19.6594C23.0173 18.4873 22.7243 17.1709 22.7243 16.6593V14.6359C22.7243 14.2406 22.8917 13.1428 23.5615 11.9149C24.2313 10.6869 25.4686 10.9614 26.0035 11.287C27.4687 12.194 28.8176 13.6824 29.213 14.4266Z"  stroke="#EBEBEB" stroke-width="0.279082"/>
  <path d="M21.9211 16.9496C21.2433 16.5259 20.0147 16.6318 19.4852 16.7377C20.0783 16.2717 20.0147 15.9434 19.9088 15.8375C19.9088 15.8375 19.0086 14.9903 18.6909 15.1491C18.3732 15.308 17.7377 16.007 17.7377 17.5321C17.7377 19.0572 18.0907 19.7915 18.2673 19.968L22.027 23.6218C22.7154 23.5512 24.0499 23.7277 23.8804 24.9986C23.711 26.2695 22.5389 26.3401 21.9741 26.2166C21.6916 26.446 20.7985 27.2439 19.4852 28.5995C18.1719 29.9552 17.8436 30.7177 17.8436 30.9295C17.7589 32.963 18.0554 34.0362 18.2143 34.3186C18.2849 34.5481 18.6273 34.8905 19.4323 34.4245C20.2372 33.9585 19.7676 33.3478 19.4323 33.1006C20.5761 33.3972 21.6034 33.083 21.9741 32.8888C21.3386 33.895 19.7606 35.8331 18.532 35.5365C16.9963 35.1659 16.9434 32.6241 16.9963 31.4061C17.0387 30.4317 17.6494 29.4468 17.9495 29.0761L21.4975 25.6341C21.4269 25.6341 21.275 25.4964 21.2327 24.9457C21.1903 24.395 21.3562 24.1867 21.4445 24.1514C20.7031 23.4453 18.998 21.8108 18.1084 20.9211C17.2187 20.0315 16.9963 19.0324 16.9963 18.6441V17.1084C16.9963 16.8084 17.1234 15.9752 17.6318 15.0432C18.1402 14.1112 19.0792 14.3195 19.4852 14.5666C20.5972 15.255 21.621 16.3847 21.9211 16.9496Z"  stroke="#EBEBEB" stroke-width="0.279082"/>
  <path d="M16.0105 19.5852C15.5557 19.3009 14.7312 19.372 14.3759 19.4431C14.7739 19.1304 14.7312 18.91 14.6602 18.839C14.6602 18.839 14.0561 18.2704 13.8429 18.377C13.6297 18.4836 13.2032 18.9527 13.2032 19.9761C13.2032 20.9995 13.4401 21.4923 13.5586 21.6107L16.0816 24.0626C16.5435 24.0153 17.439 24.1337 17.3253 24.9866C17.2116 25.8394 16.4251 25.8868 16.0461 25.8039C15.8565 25.9579 15.2572 26.4932 14.3759 27.4029C13.4946 28.3126 13.2743 28.8244 13.2743 28.9665C13.2175 30.331 13.4165 31.0512 13.5231 31.2407C13.5704 31.3947 13.8002 31.6245 14.3404 31.3118C14.8805 30.9991 14.5654 30.5893 14.3404 30.4234C15.1079 30.6224 15.7973 30.4116 16.0461 30.2813C15.6196 30.9565 14.5607 32.257 13.7363 32.058C12.7057 31.8093 12.6702 30.1036 12.7057 29.2863C12.7342 28.6325 13.144 27.9715 13.3454 27.7228L15.7262 25.413C15.6788 25.413 15.577 25.3206 15.5486 24.951C15.5201 24.5815 15.6315 24.4417 15.6907 24.418C15.1932 23.9442 14.049 22.8473 13.452 22.2504C12.855 21.6534 12.7057 20.9829 12.7057 20.7223V19.6918C12.7057 19.4905 12.791 18.9314 13.1322 18.306C13.4733 17.6805 14.1035 17.8203 14.3759 17.9861C15.1221 18.4481 15.8091 19.2062 16.0105 19.5852Z" stroke="#EBEBEB" stroke-width="0.279082"/>
  <path d="M5.90967 29.3574C5.77012 29.5668 5.74687 29.8458 5.77013 29.9853C5.90967 30.1947 6.30503 30.0318 6.39805 29.9853C8.07254 29.3713 9.42144 28.3806 9.88658 27.962C10.4215 27.5201 11.589 26.3154 11.9797 25.0316C12.3704 23.7478 9.72378 21.7059 8.35162 20.8454C7.46159 20.2873 6.18874 19.7989 5.90967 19.9384C5.72966 20.0284 5.73938 20.247 5.90967 20.5663C6.46782 21.6129 7.62601 23.5246 7.51438 25.0316C7.37484 26.9154 6.07385 29.1111 5.90967 29.3574Z"/>
  <path fill-rule="evenodd" clip-rule="evenodd" d="M31.4532 34.338C31.4747 34.2378 31.4968 34.1346 31.5155 34.0321C31.8184 32.3633 32.7623 30.9138 33.5595 29.6897C34.0911 28.8735 34.5574 28.1575 34.7249 27.5434C34.7779 27.3492 34.8309 27.1695 34.8814 26.9979C35.2305 25.8138 35.465 25.0185 34.7947 22.5199C34.2393 20.4498 32.8801 18.2425 32.0919 16.9627C31.791 16.474 31.5733 16.1205 31.5155 15.9615C31.3061 15.3861 31.348 15.1522 31.5155 14.9847C31.6829 14.8173 33.1899 15.0656 34.5854 15.7522C37.5157 17.1941 43.4462 21.0687 43.7253 25.0317C44.0742 29.9854 32.1434 35.9857 31.3759 35.0089C31.342 34.8562 31.3952 34.6082 31.4532 34.338ZM39.8583 23.3146C40.2863 23.3146 40.6332 22.9677 40.6332 22.5397C40.6332 22.1117 40.2863 21.7648 39.8583 21.7648C39.4303 21.7648 39.0834 22.1117 39.0834 22.5397C39.0834 22.9677 39.4303 23.3146 39.8583 23.3146Z"/>
  <defs>
    <linearGradient id="paint0_linear_386_300" x1="-7.10339" y1="47.0898" x2="49.7145" y2="0.0681147" gradientUnits="userSpaceOnUse">
      <stop stop-color="#1AA4F6"/>
      <stop offset="1" stop-color="#0F6090"/>
    </linearGradient>
  </defs>
</svg>